<?xml version="1.0" encoding="UTF-8" standalone="no"?>
<!-- Created with Inkscape (http://www.inkscape.org/) -->

<svg
   xmlns:dc="http://purl.org/dc/elements/1.1/"
   xmlns:cc="http://creativecommons.org/ns#"
   xmlns:rdf="http://www.w3.org/1999/02/22-rdf-syntax-ns#"
   xmlns:svg="http://www.w3.org/2000/svg"
   xmlns="http://www.w3.org/2000/svg"
   xmlns:inkscape="http://www.inkscape.org/namespaces/inkscape"
   version="1.1"
   width="600"
   height="600"
   id="svg4300">
  <defs
     id="defs4302" />
  <metadata
     id="metadata4305">
    <rdf:RDF>
      <cc:Work
         rdf:about="">
        <dc:format>image/svg+xml</dc:format>
        <dc:type
           rdf:resource="http://purl.org/dc/dcmitype/StillImage" />
        <dc:title />
      </cc:Work>
    </rdf:RDF>
  </metadata>
  <g
     transform="translate(-167.7198,-98.92808)"
     id="layer1">
    <g
       transform="matrix(6,0,0,6,3317.7198,98.92808)"
       id="g153">
      <circle
         cx="-475"
         cy="50"
         r="50"
         id="circle155"
         style="fill:#f8f6d8" />
    </g>
    <path
       d="m 753.8661,441.31206 c -39.36603,-22.19395 -64.60805,-33.30598 -75.70203,-33.30598 -8.06396,0 -14.36999,6.19199 -18.92398,18.55199 -4.54799,12.37802 -13.62002,18.54002 -27.24604,18.54002 -5.55598,0 -16.90795,-2.01602 -34.06796,-6.048 -9.58803,14.63998 -14.388,23.97603 -14.388,28.00798 0,5.55599 4.13396,12.09601 12.38399,19.686 8.24998,7.57201 15.21,11.346 20.89199,11.346 3.61203,0 8.496,-0.75 14.69404,-2.27401 6.18595,-1.49998 10.32599,-2.26196 12.38399,-2.26196 6.198,0 9.28197,11.35797 9.28197,34.06796 0,21.70203 -5.03998,55.00804 -15.13798,99.92401 -13.12799,-51.48002 -26.99999,-77.22603 -41.628,-77.22603 -2.02797,0 -6.18602,1.51206 -12.49201,4.56003 -6.31801,3.01201 -10.97996,4.524 -14.00398,4.524 -14.62804,0 -27.75,-13.36199 -39.36599,-40.12801 -23.21402,3.54002 -34.83006,15.40203 -34.83006,35.60401 0,10.10401 4.66202,18.162 14.01602,24.21 9.318,6.04801 14.00401,10.36203 14.00401,12.87001 0,13.63799 -19.94399,34.58397 -59.81401,62.838 -21.18602,15.13801 -35.83798,25.734 -43.89601,31.78197 7.04399,-9.07199 14.11201,-20.92199 21.19803,-35.56794 8.06396,-16.65004 12.10799,-29.52001 12.10799,-38.61606 0,-5.03994 -5.80206,-12.11996 -17.41206,-21.19799 -11.616,-9.07199 -17.39998,-18.666 -17.39998,-28.75799 0,-8.568 3.01205,-19.15798 9.07203,-31.79399 -6.56405,-7.57201 -14.36996,-11.37002 -23.46,-11.37002 -20.18999,0 -30.26998,6.57602 -30.26998,19.68003 0,-9.08404 0,-2.27402 0,20.43597 0.49199,16.65604 -12.12,24.984 -37.86601,24.984 -19.67396,0 -52.74601,-4.55396 -99.162,-13.62602 52.48802,-13.12796 78.72606,-28.26597 78.72606,-45.41997 0,2.01602 -1.00807,-4.03198 -3.02406,-18.168 -2.028,-15.624 9.084,-29.76596 33.30605,-42.37798 -4.54802,-23.20197 -16.63803,-34.83602 -36.34204,-34.83602 -3.02399,0 -8.59198,5.304 -16.65004,15.88202 -8.07597,10.62598 -15.64194,15.912 -22.69794,15.912 -12.12003,0 -27.77402,-13.11601 -46.93204,-39.378 -9.09597,-13.10401 -22.97998,-32.54403 -41.64597,-58.29005 11.60398,6.07206 23.21398,12.12007 34.82998,18.18605 15.13801,7.05597 27.24603,10.596 36.34201,10.596 7.06801,0 14.00401,-6.18603 20.814,-18.552 6.81002,-12.36601 15.77399,-18.552 26.87401,-18.552 1.524,0 11.616,3.02399 30.282,9.09598 9.57598,-14.63398 14.38796,-25.48799 14.38796,-32.55597 0,-6.06002 -3.666,-12.99601 -10.97998,-20.82604 -7.326,-7.81799 -14.00401,-11.73 -20.06399,-11.73 -2.532,0 -6.432,0.75001 -11.74198,2.27401 -5.28602,1.51203 -9.198,2.27401 -11.71805,2.27401 -9.09595,0 -13.63796,-11.35798 -13.63796,-34.068 0,-6.06001 5.81397,-40.62 17.424,-103.70998 -0.51605,7.56 2.76596,21.70196 9.83397,42.38398 8.58,25.24201 18.666,37.85397 30.29401,37.85397 2.00401,0 6.048,-1.512 12.10798,-4.54796 6.04801,-3.02405 10.84201,-4.524 14.37603,-4.524 11.60399,0 21.18598,6.56398 28.77,19.66201 l 11.35798,20.43598 c 10.59599,0 19.42795,-3.77396 26.48398,-11.34597 7.06798,-7.57201 10.608,-16.66202 10.608,-27.25801 0,-11.09999 -4.66198,-19.56003 -14.00404,-25.36202 -9.35393,-5.802 -14.01592,-10.21801 -14.01592,-13.24199 0,-10.60804 16.66195,-28.51202 49.96793,-53.748 26.74204,-20.17798 44.15403,-32.04003 52.24208,-35.58002 -21.70206,29.27403 -32.55604,50.70603 -32.55604,64.34402 0,7.06798 4.27799,14.64599 12.87,22.71002 10.59603,9.58797 16.65004,16.40399 18.16203,20.43594 5.04001,11.62805 4.53601,27.51603 -1.51199,47.69405 13.62598,9.59998 23.96396,14.376 31.04398,14.376 14.616,0 21.948,-7.58402 21.948,-22.70999 0,-1.51206 -0.62997,-6.30603 -1.88401,-14.37603 -1.27799,-8.06399 -1.63797,-12.61202 -1.14598,-13.62598 2.01602,-7.06805 15.89996,-10.60804 41.63403,-10.60804 16.14598,0 49.69793,4.54802 100.68597,13.63803 -11.112,3.02402 -27.76204,7.56 -49.95599,13.62001 -20.18999,6.05998 -30.29403,12.86997 -30.29403,20.43594 0,3.54003 1.25403,9.58804 3.78603,18.16203 2.51999,8.59205 3.79798,14.88003 3.79798,18.936 0,7.05596 -4.54798,13.62001 -13.62598,19.66201 l -25.74602,18.18602 c 6.06002,11.11197 10.092,17.66997 12.12003,19.67395 5.03998,6.04804 11.84997,9.08404 20.43595,9.08404 6.06004,0 11.60402,-5.298 16.65003,-15.88802 5.03998,-10.60797 13.12796,-15.9 24.22195,-15.9 13.62005,0 29.02805,12.624 46.18206,37.86598 9.558,14.16001 24.45,35.59801 44.64,64.36201 z M 585.82411,397.41609 c 0,-32.28601 -11.87402,-60.306 -35.592,-84.036 -23.71802,-23.71801 -51.72604,-35.58002 -84.02405,-35.58002 -32.814,0 -61.07997,11.74201 -84.78597,35.21401 -23.71798,23.45999 -35.83798,51.60002 -36.33,84.396 -0.51604,32.29802 11.47201,60.18 35.95201,83.62798 24.48,23.472 52.86597,35.21401 85.15792,35.21401 34.31404,0 62.95206,-11.23797 85.90806,-33.69001 22.98002,-22.43999 34.20601,-50.81999 33.71403,-85.14597 z m -11.35801,0 c 0,30.78599 -10.35002,56.28599 -31.04402,76.44 -20.706,20.20197 -46.44001,30.294 -77.21402,30.294 -29.778,0 -55.26596,-10.33801 -76.45198,-31.04401 -21.18602,-20.67001 -31.79399,-45.912 -31.79399,-75.68999 0,-29.26199 10.70999,-54.38401 32.154,-75.31801 21.46799,-20.94 46.81793,-31.42801 76.09197,-31.42801 29.26198,0 54.62404,10.59603 76.08002,31.806 21.444,21.19799 32.17802,46.17002 32.17802,74.94002 z"
       inkscape:connector-curvature="0"
       id="path157"
       style="fill:#0d0f0f" />
  </g>
</svg>
